#!OML:ASF E:\Steps\Project 1\Capture day 1\Session 2\Subject.ASF
:FULLY-SPECIFIED
:DEGREES
129
root -0.694665 19.2135 20.3842 -159.934 -5.56653 187.403
lowerback -18.6039 -3.95053 -9.10733
upperback 1.64708 -3.34632 0.646145
thorax 12.9706 -2.25948 4.90198
lowerneck -2.21856 -9.85135 -1.08435
upperneck 21.105 -13.1797 4.7366
head 7.22838 -5.55959 0.83752
rclavicle 1.11319e-014 3.97569e-014
rhumerus -40.6196 -15.6502 -72.6286
rradius 55.3855
rwrist -16.6553
rhand -3.6034 -60.7444
rfingers 7.12502
rthumb 22.1348 -449.497
lclavicle 1.11319e-014 3.97569e-014
lhumerus -32.6098 1.79328 64.4423
lradius 40.0989
lwrist 5.75281
lhand -22.2263 -8.92576
lfingers 7.12502
lthumb 4.19024 21.0128
rfemur -47.8038 -4.6986 17.2681
rtibia 38.4059
rfoot -7.70001 -10.596
rtoes -9.32216
lfemur -32.9052 -12.1119 -10.4537
ltibia 39.5943
lfoot -24.6741 2.29652
ltoes -22.9317
130
root -0.667923 19.199 20.3556 -160.185 -6.00497 187.625
lowerback -18.2449 -3.99731 -9.2727
upperback 1.561 -3.42188 0.725141
thorax 12.6913 -2.29766 5.07767
lowerneck -2.19769 -9.90579 -1.16995
upperneck 21.2947 -13.2402 4.75169
head 7.2963 -5.578 0.849245
rclavicle -7.55382e-015 -5.24792e-014
rhumerus -41.0284 -15.8518 -72.1195
rradius 55.2424
rwrist -16.4776
rhand -3.07167 -60.1772
rfingers 7.12502
rthumb 22.6452 -448.869
lclavicle -7.55382e-015 -5.24792e-014
lhumerus -32.6686 1.43852 64.3237
lradius 40.5309
lwrist 5.95736
lhand -22.5354 -9.22838
lfingers 7.12502
lthumb 3.89172 20.7158
rfemur -47.3756 -4.79051 16.3887
rtibia 37.065
rfoot -6.70334 -10.6136
rtoes -8.69038
lfemur -32.8907 -12.3706 -10.0562
ltibia 40.1342
lfoot -25.0513 2.09417
ltoes -22.8614
131
root -0.640219 19.1815 20.3308 -160.297 -6.16265 187.947
lowerback -18.3082 -3.93894 -9.24289
upperback 1.59044 -3.34007 0.710561
thorax 12.7453 -2.25946 5.06663
lowerneck -2.15618 -9.89996 -1.15386
upperneck 21.3293 -13.2362 4.79843
head 7.30257 -5.56671 0.863878
rclavicle 1.98785e-014 3.65764e-014
rhumerus -41.1921 -16.1674 -71.8626
rradius 55.1927
rwrist -16.4124
rhand -3.65744 -60.4748
rfingers 7.12502
rthumb 22.0829 -449.234
lclavicle 1.98785e-014 3.65764e-014
lhumerus -32.4714 1.11795 64.0776
lradius 40.7611
lwrist 5.97486
lhand -22.6605 -10.2761
lfingers 7.12502
lthumb 3.77096 19.6703
rfemur -47.2882 -4.54587 15.6279
rtibia 35.9893
rfoot -5.93734 -10.6629
rtoes -7.54321
lfemur -32.9005 -12.3813 -9.58883
ltibia 40.4721
lfoot -25.3163 2.14458
ltoes -23.2258
132
root -0.610194 19.1628 20.3077 -160.259 -6.27984 188.401
lowerback -18.4373 -3.86511 -9.14059
upperback 1.53051 -3.26195 0.770468
thorax 12.7339 -2.21693 5.09782
lowerneck -2.09547 -9.98871 -1.12045
upperneck 21.2499 -13.3649 4.8054
head 7.26881 -5.63199 0.855235
rclavicle -3.18055e-015 -2.8625e-014
rhumerus -41.4159 -16.4699 -71.5199
rradius 54.9953
rwrist -16.3901
rhand -4.69641 -59.955
rfingers 7.12502
rthumb 21.0851 -448.829
lclavicle -3.18055e-015 -2.8625e-014
lhumerus -32.3166 1.05266 63.8092
lradius 41.0718
lwrist 5.79166
lhand -22.437 -11.0089
lfingers 7.12502
lthumb 3.98682 18.9336
rfemur -47.503 -4.20605 15.0166
rtibia 35.1104
rfoot -5.31658 -10.8419
rtoes -6.86673
lfemur -33.1029 -12.2357 -8.92185
ltibia 40.8255
lfoot -25.5124 2.30682
ltoes -24.0443
133
root -0.57559 19.1428 20.2761 -160.326 -6.47294 188.764
lowerback -17.959 -3.8164 -9.11971
upperback 1.17109 -3.28081 0.782915
thorax 12.0407 -2.19357 5.11928
lowerneck -2.0095 -10.1346 -1.18387
upperneck 21.513 -13.5646 4.92333
head 7.36117 -5.69808 0.887922
rclavicle -8.74653e-015 -3.65764e-014
rhumerus -42.1637 -16.4346 -71.1738
rradius 55.1961
rwrist -16.5872
rhand -3.88279 -61.3816
rfingers 7.12502
rthumb 21.8665 -269.834
lclavicle -8.74653e-015 -3.65764e-014
lhumerus -32.7343 0.550101 63.4848
lradius 41.6429
lwrist 5.90333
lhand -22.4372 -11.0206
lfingers 7.12502
lthumb 3.98661 18.9219
rfemur -47.4581 -4.04241 14.3474
rtibia 34.0218
rfoot -4.56719 -11.0808
rtoes -6.9073
lfemur -33.2071 -12.2235 -8.35213
ltibia 41.347
lfoot -25.854 2.31031
ltoes -24.5957
134
root -0.537956 19.1239 20.241 -160.469 -6.72117 188.972
lowerback -17.8292 -3.83019 -9.34076
upperback 1.09251 -3.26933 0.750485
thorax 11.8858 -2.19475 5.21789
lowerneck -2.02644 -10.1529 -1.18361
upperneck 21.6358 -13.6161 5.10197
head 7.41998 -5.69273 0.938076
rclavicle 9.93923e-015 2.22639e-014
rhumerus -42.5299 -16.5983 -70.941
rradius 55.1036
rwrist -17.0947
rhand -3.91687 -61.4002
rfingers 7.12502
rthumb 21.8338 -269.811
lclavicle 9.93923e-015 2.22639e-014
lhumerus -32.7626 0.00936483 63.2072
lradius 42.2119
lwrist 6.03842
lhand -22.7529 -10.7839
lfingers 7.12502
lthumb 3.68176 19.164
rfemur -47.2041 -3.97657 13.5362
rtibia 32.7625
rfoot -3.73548 -11.5455
rtoes -7.59612
lfemur -33.2507 -12.3219 -7.955
ltibia 41.9359
lfoot -26.3625 1.95497
ltoes -23.3846
135
root -0.501755 19.1061 20.2054 -160.649 -7.03133 189.2
lowerback -17.8411 -3.86909 -9.50229
upperback 1.14377 -3.27796 0.714076
thorax 11.9621 -2.21191 5.26418
lowerneck -2.05066 -10.1101 -1.12002
upperneck 21.686 -13.5848 5.2458
head 7.44584 -5.65174 0.97499
rclavicle 3.97569e-016 4.77083e-014
rhumerus -42.636 -16.9085 -70.793
rradius 54.9337
rwrist -17.3342
rhand -5.13921 -61.0854
rfingers 7.12502
rthumb 20.6597 -269.994
lclavicle 3.97569e-016 4.77083e-014
lhumerus -32.5972 -0.254882 62.8882
lradius 42.7152
lwrist 5.98099
lhand -23.3224 -10.563
lfingers 7.12502
lthumb 3.13177 19.3937
rfemur -46.8982 -3.94763 12.7652
rtibia 31.5988
rfoot -2.98766 -12.1164
rtoes -7.75726
lfemur -33.2743 -12.4165 -7.5447
ltibia 42.4827
lfoot -26.7649 1.53588
ltoes -21.8359
136
root -0.46797 19.0881 20.1711 -160.858 -7.3439 189.453
lowerback -17.8499 -3.91873 -9.57664
upperback 1.24042 -3.31699 0.69674
thorax 12.0901 -2.2409 5.2724
lowerneck -2.17161 -10.1404 -1.2101
upperneck 21.7754 -13.6711 5.46933
head 7.52331 -5.67173 1.04436
rclavicle 1.74931e-014 1.59028e-015
rhumerus -42.6313 -17.1706 -70.7248
rradius 54.9236
rwrist -17.8727
rhand -6.21885 -61.0868
rfingers 7.12502
rthumb 19.622 -269.883
lclavicle 1.74931e-014 1.59028e-015
lhumerus -32.3733 -0.369873 62.59
lradius 43.1949
lwrist 5.98768
lhand -23.4575 -10.4977
lfingers 7.12502
lthumb 3.00126 19.4609
rfemur -46.6087 -3.92485 11.9925
rtibia 30.5906
rfoot -2.385 -12.6735
rtoes -6.42233
lfemur -33.2666 -12.5609 -7.11858
ltibia 42.9913
lfoot -26.9761 1.34021
ltoes -21.1131
137
root -0.424123 19.0752 20.1276 -161.219 -7.78003 189.632
lowerback -17.7765 -4.02788 -9.90574
upperback 1.39915 -3.38735 0.71707
thorax 12.2698 -2.30639 5.45961
lowerneck -2.42263 -10.2101 -1.26795
upperneck 22.0468 -13.7849 5.48761
head 7.66813 -5.70832 1.03179
rclavicle -3.61788e-014 -6.99722e-014
rhumerus -42.7569 -17.7982 -70.1731
rradius 54.4631
rwrist -16.7737
rhand -3.71465 -59.0893
rfingers 7.12502
rthumb 22.028 -447.855
lclavicle -3.61788e-014 -6.99722e-014
lhumerus -32.2041 -0.709236 62.3431
lradius 43.7598
lwrist 6.14628
lhand -23.3486 -10.4494
lfingers 7.12502
lthumb 3.10642 19.5077
rfemur -45.8609 -3.84009 11.0827
rtibia 29.1652
rfoot -1.73614 -13.4093
rtoes -5.03274
lfemur -32.9397 -12.8408 -6.72272
ltibia 43.2259
lfoot -27.1043 1.09499
ltoes -20.3487
138
root -0.385246 19.0579 20.0908 -161.309 -8.01881 190.018
lowerback -17.8899 -4.03557 -9.9323
upperback 1.39074 -3.3836 0.750877
thorax 12.3296 -2.31007 5.51014
lowerneck -2.52767 -10.2303 -1.25348
upperneck 22.2173 -13.8178 5.47955
head 7.7434 -5.7088 1.01648
rclavicle 1.63003e-014 1.74931e-014
rhumerus -42.9711 -18.0472 -69.8487
rradius 54.3703
rwrist -16.5263
rhand -3.23653 -59.042
rfingers 7.12502
rthumb 22.4869 -447.753
lclavicle 1.63003e-014 1.74931e-014
lhumerus -32.2213 -1.2083 62.0745
lradius 44.3978
lwrist 6.41213
lhand -23.343 -10.4737
lfingers 7.12502
lthumb 3.11188 19.4833
rfemur -45.6008 -3.69324 10.4478
rtibia 27.8994
rfoot -0.957846 -13.8628
rtoes -4.85228
lfemur -32.9832 -12.866 -6.09962
ltibia 43.5604
lfoot -27.3013 1.06581
ltoes -20.5633
139
root -0.345314 19.0402 20.0544 -161.385 -8.34269 190.447
lowerback -17.952 -4.06709 -9.87687
upperback 1.34604 -3.43777 0.779039
thorax 12.3215 -2.3315 5.49277
lowerneck -2.44044 -10.2675 -1.24114
upperneck 22.1312 -13.9071 5.69918
head 7.71898 -5.73376 1.08324
rclavicle 3.89618e-014 2.8625e-014
rhumerus -43.1665 -18.285 -69.6483
rradius 54.3402
rwrist -16.5466
rhand -3.81196 -59.701
rfingers 7.12502
rthumb 21.9345 -448.478
lclavicle 3.89618e-014 2.8625e-014
lhumerus -32.2371 -1.65322 61.7791
lradius 45.0034
lwrist 6.63568
lhand -23.2019 -10.4592
lfingers 7.12502
lthumb 3.2481 19.4958
rfemur -45.4092 -3.4987 9.83598
rtibia 26.8921
rfoot -0.417442 -14.3981
rtoes -4.33246
lfemur -33.1714 -12.9566 -5.38199
ltibia 44.0862
lfoot -27.6188 0.966842
ltoes -20.7648
140
root -0.30262 19.027 20.0076 -161.803 -9.00126 190.655
lowerback -17.634 -4.19242 -10.0494
upperback 1.40159 -3.59334 0.732351
thorax 12.2397 -2.41161 5.501
lowerneck -2.60657 -7.91476 -1.25556
upperneck 22.1318 -14.5674 6.45446
head 7.85036 -7.26642 1.08505
rclavicle -1.70955e-014 3.33958e-014
rhumerus -43.4777 -18.5256 -69.552
rradius 54.5839
rwrist -17.2853
rhand -5.63168 -60.8371
rfingers 7.12502
rthumb 20.1864 -449.808
lclavicle -1.70955e-014 3.33958e-014
lhumerus -32.2277 -2.27147 61.453
lradius 45.6009
lwrist 6.8076
lhand -23.4837 -10.2398
lfingers 7.12502
lthumb 2.97598 19.7192
rfemur -44.4965 -3.58655 9.0117
rtibia 25.5769
rfoot 0.076823 -15.1655
rtoes -4.06259
lfemur -32.9216 -13.4703 -4.89767
ltibia 44.4985
lfoot -28.001 0.592532
ltoes -19.8713
141
root -0.257018 19.0066 19.9645 -162.028 -9.20507 190.945
lowerback -17.5292 -4.15308 -10.1897
upperback 1.37775 -3.5191 0.665332
thorax 12.1429 -2.37976 5.53174
lowerneck -2.71799 -7.90677 -1.20172
upperneck 22.4028 -14.6512 6.53318
head 7.96886 -7.29581 1.07904
rclavicle -3.29983e-014 -5.40694e-014
rhumerus -43.9659 -19.2316 -68.9526
rradius 54.3709
rwrist -16.1363
rhand -4.14587 -59.6652
rfingers 7.12502
rthumb 21.6139 -448.479
lclavicle -3.29983e-014 -5.40694e-014
lhumerus -32.2246 -2.961 61.1313
lradius 46.1694
lwrist 6.97113
lhand -23.9468 -10.3268
lfingers 7.12502
lthumb 2.52875 19.6379
rfemur -44.084 -3.46199 8.32716
rtibia 24.4222
rfoot 0.718633 -15.7061
rtoes -4.47013
lfemur -32.7323 -13.51 -4.42064
ltibia 44.872
lfoot -28.4551 0.541391
ltoes -19.8834
142
root -0.208353 18.9904 19.9179 -162.295 -9.5297 191.179
lowerback -17.441 -4.20604 -10.5069
upperback 1.41914 -3.52958 0.666497
thorax 12.166 -2.40807 5.7118
lowerneck -2.6412 -7.93382 -1.22723
upperneck 22.3016 -14.7005 6.70712
head 7.93949 -7.31087 1.14068
rclavicle -1.07344e-014 -4.13472e-014
rhumerus -44.2808 -19.7524 -68.4802
rradius 54.3849
rwrist -15.8699
rhand -3.85339 -58.8575
rfingers 7.12502
rthumb 21.8947 -447.639
lclavicle -1.07344e-014 -4.13472e-014
lhumerus -32.1213 -3.39965 60.8664
lradius 46.599
lwrist 6.96865
lhand -23.9568 -10.7526
lfingers 7.12502
lthumb 2.51907 19.2123
rfemur -43.533 -3.11226 7.4615
rtibia 23.3192
rfoot 0.947083 -16.5563
rtoes -3.46085
lfemur -32.5657 -13.6986 -3.96315
ltibia 45.2743
lfoot -28.749 0.244306
ltoes -18.7654
